# xmcd
#
# Track frame offsets:
#	150
#	14213
#	29177
#	46339
#	61367
#	78788
#	94455
#	109597
#	134204
#	150716
#	169057
#	187240
#	201259
#	218587
#	232810
#	250556
#	274101
#	289104
#	309099
#
# Disc length: 4338 seconds
#
# Revision: 1
# Processed by: cddbd v1.5.1PL2 Copyright (c) Steve Scherf et al.
# Submitted via: audiograbber 1.83.01
#
DISCID=1410f013
DTITLE=The Best of Country 2000 - Best of Country 2000
DYEAR=2000
DGENRE=Country
TTITLE0=Faith Hill - The way you love me
TTITLE1=Andy Griggs - She's more
TTITLE2=Kenny Rogers - Buy me a rose
TTITLE3=George Strait - The best day
TTITLE4=Phil Vassar - Carlene
TTITLE5=Toby Keith - How do you like me now
TTITLE6=Chad Brock - Yes!
TTITLE7=Clint Black - Been there
TTITLE8=Collin Raye - Could't last a moment
TTITLE9=Kenny Chesney - What I need to do
TTITLE10=Clay Davidson - Unconditional
TTITLE11=Trace Adkins - More
TTITLE12=Lee Ann Womack - I hope you dance
TTITLE13=Yankee Grey - Another nine minutes
TTITLE14=Tim McGraw - Some things never change
TTITLE15=Martina McBride - Love's the only house
TTITLE16=Brad Paisley - Me neither
TTITLE17=Reba McEntire - I'll be
TTITLE18=Rascal Flatts - Prayin' for daylight
EXTD=
EXTT0=
EXTT1=
EXTT2=
EXTT3=
EXTT4=
EXTT5=
EXTT6=
EXTT7=
EXTT8=
EXTT9=
EXTT10=
EXTT11=
EXTT12=
EXTT13=
EXTT14=
EXTT15=
EXTT16=
EXTT17=
EXTT18=
PLAYORDER=
